<svg xmlns="http://www.w3.org/2000/svg" xmlns:xlink="http://www.w3.org/1999/xlink" width="400" zoomAndPan="magnify" viewBox="0 0 300 74.999997" height="100" preserveAspectRatio="xMidYMid meet" version="1.0"><defs><g/><clipPath id="0346bc1005"><path d="M 0 19.601562 L 30 19.601562 L 30 51.851562 L 0 51.851562 Z M 0 19.601562 " clip-rule="nonzero"/></clipPath><clipPath id="ed8c9ee2ed"><path d="M 138.21875 21.230469 L 167.46875 21.230469 L 167.46875 53.480469 L 138.21875 53.480469 Z M 138.21875 21.230469 " clip-rule="nonzero"/></clipPath></defs><rect x="-30" width="360" fill="#ffffff" y="-7.5" height="89.999996" fill-opacity="1"/><rect x="-30" width="360" fill="#ffffff" y="-7.5" height="89.999996" fill-opacity="1"/><g fill="#000000" fill-opacity="1"><g transform="translate(3.942968, 52.548291)"><g/></g></g><g fill="#000000" fill-opacity="1"><g transform="translate(12.834748, 52.548291)"><g/></g></g><g fill="#000000" fill-opacity="1"><g transform="translate(21.726528, 52.548291)"><g/></g></g><g fill="#158fff" fill-opacity="1"><g transform="translate(30.620648, 52.548291)"><g><path d="M 5.84375 -24.28125 C 4.851562 -24.28125 4.050781 -24.578125 3.4375 -25.171875 C 2.820312 -25.773438 2.515625 -26.546875 2.515625 -27.484375 C 2.515625 -28.410156 2.820312 -29.171875 3.4375 -29.765625 C 4.050781 -30.367188 4.851562 -30.671875 5.84375 -30.671875 C 6.5 -30.671875 7.082031 -30.53125 7.59375 -30.25 C 8.101562 -29.976562 8.5 -29.601562 8.78125 -29.125 C 9.0625 -28.644531 9.203125 -28.097656 9.203125 -27.484375 C 9.203125 -26.867188 9.0625 -26.316406 8.78125 -25.828125 C 8.5 -25.347656 8.101562 -24.96875 7.59375 -24.6875 C 7.082031 -24.414062 6.5 -24.28125 5.84375 -24.28125 Z M 3.125 0 L 3.125 -21.6875 L 8.578125 -21.6875 L 8.578125 0 Z M 3.125 0 "/></g></g></g><g fill="#158fff" fill-opacity="1"><g transform="translate(41.694724, 52.548291)"><g><path d="M 11.25 9.203125 C 7.664062 9.203125 5.019531 8.675781 3.3125 7.625 C 1.613281 6.582031 0.765625 5.125 0.765625 3.25 C 0.765625 2.101562 1.128906 1.164062 1.859375 0.4375 C 2.585938 -0.289062 3.632812 -0.773438 5 -1.015625 L 5 -1.4375 C 4.257812 -1.882812 3.726562 -2.378906 3.40625 -2.921875 C 3.082031 -3.460938 2.921875 -4.09375 2.921875 -4.8125 C 2.921875 -6.5625 4.054688 -7.738281 6.328125 -8.34375 L 6.328125 -8.75 C 5.160156 -9.414062 4.28125 -10.242188 3.6875 -11.234375 C 3.101562 -12.222656 2.8125 -13.421875 2.8125 -14.828125 C 2.8125 -16.265625 3.140625 -17.53125 3.796875 -18.625 C 4.460938 -19.71875 5.429688 -20.566406 6.703125 -21.171875 C 7.984375 -21.785156 9.519531 -22.09375 11.3125 -22.09375 C 13.113281 -22.09375 14.550781 -21.78125 15.625 -21.15625 C 16.300781 -22.125 16.691406 -23.242188 16.796875 -24.515625 L 17.203125 -24.765625 L 21.109375 -23.8125 C 20.992188 -22.769531 20.691406 -21.898438 20.203125 -21.203125 C 19.722656 -20.503906 18.972656 -19.878906 17.953125 -19.328125 L 17.953125 -18.890625 C 19.171875 -17.816406 19.78125 -16.316406 19.78125 -14.390625 C 19.78125 -13.054688 19.445312 -11.859375 18.78125 -10.796875 C 18.113281 -9.734375 17.140625 -8.894531 15.859375 -8.28125 C 14.578125 -7.664062 13.0625 -7.359375 11.3125 -7.359375 L 10.484375 -7.375 C 9.953125 -7.394531 9.582031 -7.40625 9.375 -7.40625 C 8.875 -7.40625 8.484375 -7.269531 8.203125 -7 C 7.921875 -6.738281 7.78125 -6.398438 7.78125 -5.984375 C 7.78125 -5.515625 7.960938 -5.148438 8.328125 -4.890625 C 8.703125 -4.640625 9.242188 -4.503906 9.953125 -4.484375 L 14.8125 -4.3125 C 19.601562 -4.164062 22 -2.097656 22 1.890625 C 22 3.285156 21.640625 4.53125 20.921875 5.625 C 20.210938 6.726562 19.054688 7.597656 17.453125 8.234375 C 15.859375 8.878906 13.789062 9.203125 11.25 9.203125 Z M 11.3125 -11.171875 C 12.351562 -11.171875 13.164062 -11.476562 13.75 -12.09375 C 14.34375 -12.707031 14.640625 -13.582031 14.640625 -14.71875 C 14.640625 -15.863281 14.34375 -16.738281 13.75 -17.34375 C 13.164062 -17.957031 12.351562 -18.265625 11.3125 -18.265625 C 10.25 -18.265625 9.425781 -17.957031 8.84375 -17.34375 C 8.269531 -16.738281 7.984375 -15.863281 7.984375 -14.71875 C 7.984375 -13.570312 8.269531 -12.691406 8.84375 -12.078125 C 9.425781 -11.472656 10.25 -11.171875 11.3125 -11.171875 Z M 11.25 5.25 C 13.101562 5.25 14.453125 4.984375 15.296875 4.453125 C 16.148438 3.929688 16.578125 3.253906 16.578125 2.421875 C 16.578125 1.734375 16.359375 1.226562 15.921875 0.90625 C 15.492188 0.59375 14.804688 0.421875 13.859375 0.390625 L 9.578125 0.203125 C 9.429688 0.203125 9.296875 0.191406 9.171875 0.171875 C 9.046875 0.160156 8.925781 0.15625 8.8125 0.15625 C 7.894531 0.15625 7.195312 0.351562 6.71875 0.75 C 6.238281 1.144531 6 1.6875 6 2.375 C 6 3.289062 6.4375 4 7.3125 4.5 C 8.1875 5 9.5 5.25 11.25 5.25 Z M 11.25 5.25 "/></g></g></g><g fill="#158fff" fill-opacity="1"><g transform="translate(63.640963, 52.548291)"><g><path d="M 5.84375 -24.28125 C 4.851562 -24.28125 4.050781 -24.578125 3.4375 -25.171875 C 2.820312 -25.773438 2.515625 -26.546875 2.515625 -27.484375 C 2.515625 -28.410156 2.820312 -29.171875 3.4375 -29.765625 C 4.050781 -30.367188 4.851562 -30.671875 5.84375 -30.671875 C 6.5 -30.671875 7.082031 -30.53125 7.59375 -30.25 C 8.101562 -29.976562 8.5 -29.601562 8.78125 -29.125 C 9.0625 -28.644531 9.203125 -28.097656 9.203125 -27.484375 C 9.203125 -26.867188 9.0625 -26.316406 8.78125 -25.828125 C 8.5 -25.347656 8.101562 -24.96875 7.59375 -24.6875 C 7.082031 -24.414062 6.5 -24.28125 5.84375 -24.28125 Z M 3.125 0 L 3.125 -21.6875 L 8.578125 -21.6875 L 8.578125 0 Z M 3.125 0 "/></g></g></g><g fill="#158fff" fill-opacity="1"><g transform="translate(74.715038, 52.548291)"><g><path d="M 14.96875 -5.171875 L 16.375 -1.140625 C 15.789062 -0.648438 15.050781 -0.269531 14.15625 0 C 13.257812 0.269531 12.25 0.40625 11.125 0.40625 C 8.78125 0.40625 7 -0.226562 5.78125 -1.5 C 4.5625 -2.78125 3.953125 -4.640625 3.953125 -7.078125 L 3.953125 -17.375 L 0.65625 -17.375 L 0.65625 -21.703125 L 3.953125 -21.703125 L 3.953125 -25.9375 L 9.390625 -26.8125 L 9.390625 -21.703125 L 15.546875 -21.703125 L 15.546875 -17.375 L 9.390625 -17.375 L 9.390625 -7.46875 C 9.390625 -6.394531 9.613281 -5.613281 10.0625 -5.125 C 10.507812 -4.632812 11.160156 -4.390625 12.015625 -4.390625 C 12.984375 -4.390625 13.828125 -4.648438 14.546875 -5.171875 Z M 14.96875 -5.171875 "/></g></g></g><g fill="#158fff" fill-opacity="1"><g transform="translate(90.95978, 52.548291)"><g><path d="M 8.453125 0.40625 C 7.066406 0.40625 5.859375 0.148438 4.828125 -0.359375 C 3.804688 -0.867188 3.019531 -1.617188 2.46875 -2.609375 C 1.925781 -3.597656 1.65625 -4.785156 1.65625 -6.171875 C 1.65625 -7.453125 1.925781 -8.53125 2.46875 -9.40625 C 3.019531 -10.28125 3.875 -10.992188 5.03125 -11.546875 C 6.1875 -12.109375 7.695312 -12.539062 9.5625 -12.84375 C 10.851562 -13.050781 11.835938 -13.28125 12.515625 -13.53125 C 13.191406 -13.78125 13.644531 -14.0625 13.875 -14.375 C 14.113281 -14.6875 14.234375 -15.085938 14.234375 -15.578125 C 14.234375 -16.265625 13.988281 -16.789062 13.5 -17.15625 C 13.019531 -17.53125 12.21875 -17.71875 11.09375 -17.71875 C 9.882812 -17.71875 8.734375 -17.445312 7.640625 -16.90625 C 6.554688 -16.375 5.613281 -15.664062 4.8125 -14.78125 L 4.421875 -14.78125 L 2.140625 -18.21875 C 3.242188 -19.4375 4.585938 -20.382812 6.171875 -21.0625 C 7.753906 -21.75 9.484375 -22.09375 11.359375 -22.09375 C 14.234375 -22.09375 16.3125 -21.484375 17.59375 -20.265625 C 18.875 -19.046875 19.515625 -17.316406 19.515625 -15.078125 L 19.515625 -5.65625 C 19.515625 -4.6875 19.941406 -4.203125 20.796875 -4.203125 C 21.128906 -4.203125 21.453125 -4.265625 21.765625 -4.390625 L 22.046875 -4.3125 L 22.4375 -0.515625 C 22.132812 -0.316406 21.710938 -0.15625 21.171875 -0.03125 C 20.640625 0.09375 20.050781 0.15625 19.40625 0.15625 C 18.101562 0.15625 17.085938 -0.09375 16.359375 -0.59375 C 15.640625 -1.09375 15.125 -1.867188 14.8125 -2.921875 L 14.390625 -2.96875 C 13.328125 -0.71875 11.347656 0.40625 8.453125 0.40625 Z M 10.1875 -3.65625 C 11.445312 -3.65625 12.453125 -4.078125 13.203125 -4.921875 C 13.953125 -5.765625 14.328125 -6.941406 14.328125 -8.453125 L 14.328125 -10.65625 L 13.953125 -10.734375 C 13.628906 -10.472656 13.203125 -10.253906 12.671875 -10.078125 C 12.140625 -9.898438 11.375 -9.726562 10.375 -9.5625 C 9.195312 -9.363281 8.347656 -9.023438 7.828125 -8.546875 C 7.316406 -8.066406 7.0625 -7.382812 7.0625 -6.5 C 7.0625 -5.570312 7.332031 -4.863281 7.875 -4.375 C 8.425781 -3.894531 9.195312 -3.65625 10.1875 -3.65625 Z M 10.1875 -3.65625 "/></g></g></g><g fill="#158fff" fill-opacity="1"><g transform="translate(113.220587, 52.548291)"><g><path d="M 9 0.40625 C 7.050781 0.40625 5.5625 -0.117188 4.53125 -1.171875 C 3.5 -2.222656 2.984375 -3.828125 2.984375 -5.984375 L 2.984375 -30.390625 L 8.4375 -30.390625 L 8.4375 -6.1875 C 8.4375 -4.863281 8.988281 -4.203125 10.09375 -4.203125 C 10.40625 -4.203125 10.738281 -4.253906 11.09375 -4.359375 L 11.359375 -4.28125 L 11.859375 -0.09375 C 11.554688 0.0625 11.15625 0.179688 10.65625 0.265625 C 10.15625 0.359375 9.601562 0.40625 9 0.40625 Z M 9 0.40625 "/></g></g></g><g fill="#000000" fill-opacity="1"><g transform="translate(125.091914, 52.548291)"><g/></g></g><g fill="#000000" fill-opacity="1"><g transform="translate(133.983694, 52.548291)"><g/></g></g><g fill="#000000" fill-opacity="1"><g transform="translate(142.875473, 52.548291)"><g/></g></g><g fill="#000000" fill-opacity="1"><g transform="translate(151.767254, 52.548291)"><g/></g></g><g fill="#000000" fill-opacity="1"><g transform="translate(160.659032, 52.548291)"><g/></g></g><g fill="#000000" fill-opacity="1"><g transform="translate(169.56319, 52.548291)"><g><path d="M 12.609375 0.40625 C 10.484375 0.40625 8.613281 -0.0234375 7 -0.890625 C 5.394531 -1.765625 4.148438 -3.039062 3.265625 -4.71875 C 2.390625 -6.40625 1.953125 -8.441406 1.953125 -10.828125 C 1.953125 -13.210938 2.390625 -15.25 3.265625 -16.9375 C 4.148438 -18.632812 5.394531 -19.914062 7 -20.78125 C 8.613281 -21.65625 10.484375 -22.09375 12.609375 -22.09375 C 14.722656 -22.09375 16.582031 -21.65625 18.1875 -20.78125 C 19.800781 -19.914062 21.050781 -18.632812 21.9375 -16.9375 C 22.832031 -15.25 23.28125 -13.210938 23.28125 -10.828125 C 23.28125 -8.441406 22.832031 -6.40625 21.9375 -4.71875 C 21.050781 -3.039062 19.800781 -1.765625 18.1875 -0.890625 C 16.582031 -0.0234375 14.722656 0.40625 12.609375 0.40625 Z M 12.609375 -4.203125 C 15.972656 -4.203125 17.65625 -6.410156 17.65625 -10.828125 C 17.65625 -13.128906 17.222656 -14.8125 16.359375 -15.875 C 15.492188 -16.945312 14.242188 -17.484375 12.609375 -17.484375 C 9.234375 -17.484375 7.546875 -15.265625 7.546875 -10.828125 C 7.546875 -6.410156 9.234375 -4.203125 12.609375 -4.203125 Z M 12.609375 -4.203125 "/></g></g></g><g fill="#000000" fill-opacity="1"><g transform="translate(194.163573, 52.548291)"><g><path d="M 3.125 0 L 3.125 -21.6875 L 8.359375 -21.6875 L 8.359375 -18.5 L 8.765625 -18.40625 C 10.117188 -20.863281 12.304688 -22.09375 15.328125 -22.09375 C 17.835938 -22.09375 19.675781 -21.410156 20.84375 -20.046875 C 22.019531 -18.691406 22.609375 -16.707031 22.609375 -14.09375 L 22.609375 0 L 17.15625 0 L 17.15625 -13.421875 C 17.15625 -14.867188 16.867188 -15.910156 16.296875 -16.546875 C 15.722656 -17.179688 14.800781 -17.5 13.53125 -17.5 C 11.96875 -17.5 10.75 -16.992188 9.875 -15.984375 C 9.007812 -14.972656 8.578125 -13.382812 8.578125 -11.21875 L 8.578125 0 Z M 3.125 0 "/></g></g></g><g fill="#000000" fill-opacity="1"><g transform="translate(218.960559, 52.548291)"><g><path d="M 11.25 9.203125 C 7.664062 9.203125 5.019531 8.675781 3.3125 7.625 C 1.613281 6.582031 0.765625 5.125 0.765625 3.25 C 0.765625 2.101562 1.128906 1.164062 1.859375 0.4375 C 2.585938 -0.289062 3.632812 -0.773438 5 -1.015625 L 5 -1.4375 C 4.257812 -1.882812 3.726562 -2.378906 3.40625 -2.921875 C 3.082031 -3.460938 2.921875 -4.09375 2.921875 -4.8125 C 2.921875 -6.5625 4.054688 -7.738281 6.328125 -8.34375 L 6.328125 -8.75 C 5.160156 -9.414062 4.28125 -10.242188 3.6875 -11.234375 C 3.101562 -12.222656 2.8125 -13.421875 2.8125 -14.828125 C 2.8125 -16.265625 3.140625 -17.53125 3.796875 -18.625 C 4.460938 -19.71875 5.429688 -20.566406 6.703125 -21.171875 C 7.984375 -21.785156 9.519531 -22.09375 11.3125 -22.09375 C 13.113281 -22.09375 14.550781 -21.78125 15.625 -21.15625 C 16.300781 -22.125 16.691406 -23.242188 16.796875 -24.515625 L 17.203125 -24.765625 L 21.109375 -23.8125 C 20.992188 -22.769531 20.691406 -21.898438 20.203125 -21.203125 C 19.722656 -20.503906 18.972656 -19.878906 17.953125 -19.328125 L 17.953125 -18.890625 C 19.171875 -17.816406 19.78125 -16.316406 19.78125 -14.390625 C 19.78125 -13.054688 19.445312 -11.859375 18.78125 -10.796875 C 18.113281 -9.734375 17.140625 -8.894531 15.859375 -8.28125 C 14.578125 -7.664062 13.0625 -7.359375 11.3125 -7.359375 L 10.484375 -7.375 C 9.953125 -7.394531 9.582031 -7.40625 9.375 -7.40625 C 8.875 -7.40625 8.484375 -7.269531 8.203125 -7 C 7.921875 -6.738281 7.78125 -6.398438 7.78125 -5.984375 C 7.78125 -5.515625 7.960938 -5.148438 8.328125 -4.890625 C 8.703125 -4.640625 9.242188 -4.503906 9.953125 -4.484375 L 14.8125 -4.3125 C 19.601562 -4.164062 22 -2.097656 22 1.890625 C 22 3.285156 21.640625 4.53125 20.921875 5.625 C 20.210938 6.726562 19.054688 7.597656 17.453125 8.234375 C 15.859375 8.878906 13.789062 9.203125 11.25 9.203125 Z M 11.3125 -11.171875 C 12.351562 -11.171875 13.164062 -11.476562 13.75 -12.09375 C 14.34375 -12.707031 14.640625 -13.582031 14.640625 -14.71875 C 14.640625 -15.863281 14.34375 -16.738281 13.75 -17.34375 C 13.164062 -17.957031 12.351562 -18.265625 11.3125 -18.265625 C 10.25 -18.265625 9.425781 -17.957031 8.84375 -17.34375 C 8.269531 -16.738281 7.984375 -15.863281 7.984375 -14.71875 C 7.984375 -13.570312 8.269531 -12.691406 8.84375 -12.078125 C 9.425781 -11.472656 10.25 -11.171875 11.3125 -11.171875 Z M 11.25 5.25 C 13.101562 5.25 14.453125 4.984375 15.296875 4.453125 C 16.148438 3.929688 16.578125 3.253906 16.578125 2.421875 C 16.578125 1.734375 16.359375 1.226562 15.921875 0.90625 C 15.492188 0.59375 14.804688 0.421875 13.859375 0.390625 L 9.578125 0.203125 C 9.429688 0.203125 9.296875 0.191406 9.171875 0.171875 C 9.046875 0.160156 8.925781 0.15625 8.8125 0.15625 C 7.894531 0.15625 7.195312 0.351562 6.71875 0.75 C 6.238281 1.144531 6 1.6875 6 2.375 C 6 3.289062 6.4375 4 7.3125 4.5 C 8.1875 5 9.5 5.25 11.25 5.25 Z M 11.25 5.25 "/></g></g></g><g fill="#000000" fill-opacity="1"><g transform="translate(240.906795, 52.548291)"><g><path d="M 21.4375 -9.609375 L 7.484375 -9.609375 C 7.648438 -7.722656 8.191406 -6.347656 9.109375 -5.484375 C 10.023438 -4.628906 11.273438 -4.203125 12.859375 -4.203125 C 14.097656 -4.203125 15.101562 -4.4375 15.875 -4.90625 C 16.65625 -5.375 17.28125 -6.078125 17.75 -7.015625 L 18.171875 -7.015625 L 21.78125 -4.703125 C 21.070312 -3.179688 20.003906 -1.945312 18.578125 -1 C 17.148438 -0.0625 15.242188 0.40625 12.859375 0.40625 C 10.617188 0.40625 8.679688 -0.015625 7.046875 -0.859375 C 5.410156 -1.710938 4.148438 -2.984375 3.265625 -4.671875 C 2.390625 -6.359375 1.953125 -8.410156 1.953125 -10.828125 C 1.953125 -13.296875 2.414062 -15.375 3.34375 -17.0625 C 4.269531 -18.757812 5.523438 -20.019531 7.109375 -20.84375 C 8.703125 -21.675781 10.488281 -22.09375 12.46875 -22.09375 C 15.53125 -22.09375 17.878906 -21.28125 19.515625 -19.65625 C 21.148438 -18.03125 21.96875 -15.644531 21.96875 -12.5 C 21.96875 -11.363281 21.925781 -10.476562 21.84375 -9.84375 Z M 16.75 -13.140625 C 16.695312 -14.785156 16.3125 -15.984375 15.59375 -16.734375 C 14.882812 -17.492188 13.84375 -17.875 12.46875 -17.875 C 9.71875 -17.875 8.097656 -16.296875 7.609375 -13.140625 Z M 16.75 -13.140625 "/></g></g></g><g fill="#000000" fill-opacity="1"><g transform="translate(263.875374, 52.548291)"><g><path d="M 3.125 0 L 3.125 -21.6875 L 8.421875 -21.6875 L 8.421875 -18.46875 L 8.828125 -18.390625 C 9.347656 -19.585938 10.035156 -20.46875 10.890625 -21.03125 C 11.742188 -21.59375 12.78125 -21.875 14 -21.875 C 15.226562 -21.875 16.164062 -21.664062 16.8125 -21.25 L 15.890625 -16.546875 L 15.46875 -16.46875 C 15.113281 -16.613281 14.769531 -16.71875 14.4375 -16.78125 C 14.113281 -16.851562 13.71875 -16.890625 13.25 -16.890625 C 11.726562 -16.890625 10.566406 -16.351562 9.765625 -15.28125 C 8.972656 -14.21875 8.578125 -12.503906 8.578125 -10.140625 L 8.578125 0 Z M 3.125 0 "/></g></g></g><g fill="#000000" fill-opacity="1"><g transform="translate(280.277403, 52.548291)"><g><path d="M 10.140625 0.40625 C 8.660156 0.40625 7.304688 0.234375 6.078125 -0.109375 C 4.847656 -0.453125 3.796875 -0.925781 2.921875 -1.53125 C 2.046875 -2.144531 1.398438 -2.847656 0.984375 -3.640625 L 4.015625 -6.90625 L 4.421875 -6.90625 C 5.140625 -5.9375 5.988281 -5.207031 6.96875 -4.71875 C 7.957031 -4.226562 9.03125 -3.984375 10.1875 -3.984375 C 11.25 -3.984375 12.046875 -4.171875 12.578125 -4.546875 C 13.117188 -4.929688 13.390625 -5.476562 13.390625 -6.1875 C 13.390625 -6.738281 13.195312 -7.203125 12.8125 -7.578125 C 12.425781 -7.953125 11.800781 -8.242188 10.9375 -8.453125 L 8.0625 -9.140625 C 5.914062 -9.648438 4.347656 -10.429688 3.359375 -11.484375 C 2.367188 -12.546875 1.875 -13.890625 1.875 -15.515625 C 1.875 -16.859375 2.21875 -18.03125 2.90625 -19.03125 C 3.59375 -20.03125 4.5625 -20.789062 5.8125 -21.3125 C 7.0625 -21.832031 8.519531 -22.09375 10.1875 -22.09375 C 12.132812 -22.09375 13.75 -21.8125 15.03125 -21.25 C 16.320312 -20.6875 17.328125 -19.9375 18.046875 -19 L 15.140625 -15.84375 L 14.75 -15.84375 C 14.144531 -16.53125 13.460938 -17.03125 12.703125 -17.34375 C 11.953125 -17.65625 11.113281 -17.8125 10.1875 -17.8125 C 8.03125 -17.8125 6.953125 -17.144531 6.953125 -15.8125 C 6.953125 -15.25 7.148438 -14.789062 7.546875 -14.4375 C 7.953125 -14.082031 8.660156 -13.789062 9.671875 -13.5625 L 12.34375 -12.96875 C 14.550781 -12.5 16.160156 -11.742188 17.171875 -10.703125 C 18.191406 -9.660156 18.703125 -8.257812 18.703125 -6.5 C 18.703125 -5.125 18.359375 -3.910156 17.671875 -2.859375 C 16.992188 -1.816406 16.007812 -1.007812 14.71875 -0.4375 C 13.4375 0.125 11.910156 0.40625 10.140625 0.40625 Z M 10.140625 0.40625 "/></g></g></g><g clip-path="url(#0346bc1005)"><path fill="#158fff" d="M 0 52.125 L 12.679688 52.125 C 14.734375 52.125 16.636719 51.84375 18.402344 51.3125 C 29.027344 48.097656 29.789062 35.6875 21.03125 30.402344 C 21.320312 30.871094 21.566406 31.371094 21.777344 31.902344 C 22.242188 33.101562 22.476562 34.417969 22.484375 35.867188 L 22.484375 35.960938 C 22.476562 37.40625 22.242188 38.722656 21.777344 39.90625 C 21.304688 41.09375 20.640625 42.113281 19.78125 42.972656 C 18.914062 43.832031 17.882812 44.5 16.683594 44.964844 C 15.484375 45.425781 14.152344 45.667969 12.679688 45.667969 L 7.152344 45.667969 L 7.152344 26.066406 L 12.679688 26.066406 C 20.269531 26.105469 31.066406 32.011719 28.242188 43.253906 C 28.59375 42.554688 28.898438 41.828125 29.148438 41.070312 C 29.683594 39.433594 29.953125 37.699219 29.960938 35.867188 L 29.960938 35.773438 C 29.953125 33.472656 29.527344 31.34375 28.699219 29.386719 C 27.871094 27.425781 26.6875 25.714844 25.15625 24.261719 C 23.621094 22.796875 21.800781 21.660156 19.695312 20.847656 C 17.582031 20.035156 15.246094 19.621094 12.679688 19.605469 L 0 19.605469 Z M 0 52.125 " fill-opacity="1" fill-rule="nonzero"/></g><g clip-path="url(#ed8c9ee2ed)"><path fill="#000000" d="M 152.875 40.660156 L 138.214844 21.25 L 138.214844 48.0625 C 138.214844 51.203125 140.761719 53.746094 143.902344 53.746094 L 143.902344 41.296875 L 152.851562 51.558594 L 161.804688 41.296875 L 161.804688 53.746094 C 164.945312 53.746094 167.488281 51.203125 167.488281 48.0625 L 167.488281 21.25 Z M 152.875 40.660156 " fill-opacity="1" fill-rule="nonzero"/></g></svg>